<svg width="10" height="7" viewBox="0 0 10 7" fill="none" xmlns="http://www.w3.org/2000/svg">
<path d="M9.37499 1.02373C9.21104 0.860761 8.98927 0.769287 8.75811 0.769287C8.52695 0.769287 8.30518 0.860761 8.14124 1.02373L4.99999 4.12123L1.90249 1.02373C1.73854 0.860761 1.51677 0.769287 1.28561 0.769287C1.05445 0.769287 0.832678 0.860761 0.668736 1.02373C0.586723 1.10507 0.521628 1.20185 0.477205 1.30848C0.432783 1.4151 0.409912 1.52947 0.409912 1.64498C0.409912 1.76049 0.432783 1.87486 0.477205 1.98149C0.521628 2.08811 0.586723 2.18489 0.668736 2.26623L4.37874 5.97623C4.46008 6.05824 4.55685 6.12334 4.66348 6.16776C4.77011 6.21218 4.88448 6.23505 4.99999 6.23505C5.1155 6.23505 5.22986 6.21218 5.33649 6.16776C5.44312 6.12334 5.53989 6.05824 5.62124 5.97623L9.37499 2.26623C9.457 2.18489 9.52209 2.08811 9.56652 1.98149C9.61094 1.87486 9.63381 1.76049 9.63381 1.64498C9.63381 1.52947 9.61094 1.4151 9.56652 1.30848C9.52209 1.20185 9.457 1.10507 9.37499 1.02373Z" fill="black"/>
</svg>
